<mxfile host="app.diagrams.net" modified="2023-05-04T12:06:55.366Z" agent="5.0 (X11; Linux x86_64) AppleWebKit/537.36 (KHTML, like Gecko) Chrome/112.0.0.0 Safari/537.36" etag="3d5DW1YpfKu2zxQK5tgj" version="20.8.21" type="github">
  <diagram name="StrÃ¡nka-1" id="kTrOMuSxbIdesVf6SkqM">
    <mxGraphModel dx="1360" dy="714" grid="1" gridSize="10" guides="1" tooltips="1" connect="1" arrows="1" fold="1" page="1" pageScale="1" pageWidth="827" pageHeight="1169" math="0" shadow="0">
      <root>
        <mxCell id="0" />
        <mxCell id="1" parent="0" />
      </root>
    </mxGraphModel>
  </diagram>
</mxfile>
